<svg xmlns="http://www.w3.org/2000/svg" xmlns:xlink="http://www.w3.org/1999/xlink" width="90" height="90" viewBox="0 0 90 90" fill="none"><defs><rect id="path_0" x="0" y="0" width="90" height="90" /><rect id="path_1" x="0" y="0" width="60" height="65.56467006395819" /><linearGradient id="linear_0" x1="50%" y1="100%" x2="51%" y2="0%" gradientUnits="objectBoundingBox"><stop offset="0" stop-color="#FF9A9E" stop-opacity="1" /><stop offset="0.99" stop-color="#FAD0C4" stop-opacity="1" /><stop offset="1" stop-color="#FAD0C4" stop-opacity="1" /></linearGradient><filter id="filter_6" x="-3.743870210824447" y="-8" width="35.36900797554015" height="35.36914129623271" filterUnits="userSpaceOnUse" color-interpolation-filters="sRGB"><feFlood flood-opacity="0" result="BackgroundImageFix"/>
          <feColorMatrix in="SourceAlpha" type="matrix" values="0 0 0 0 0 0 0 0 0 0 0 0 0 0 0 0 0 0 127 0"/>
          <feOffset dx="2" dy="2"/>
          <feGaussianBlur stdDeviation="4"/>
          <feColorMatrix type="matrix" values="0 0 0 0 1 0 0 0 0 0.7490196078431373 0 0 0 0 0.7019607843137254 0 0 0 0.6 0"/>
          <feBlend mode="normal" in2="BackgroundImageFix" result="effect1_Shadow"/>
          <feBlend mode="normal" in="SourceGraphic" in2="effect1_Shadow" result="shape"/></filter><linearGradient id="linear_1" x1="50%" y1="100%" x2="51%" y2="0%" gradientUnits="objectBoundingBox"><stop offset="0" stop-color="#FF9A9E" stop-opacity="1" /><stop offset="0.99" stop-color="#FAD0C4" stop-opacity="1" /><stop offset="1" stop-color="#FAD0C4" stop-opacity="1" /></linearGradient><filter id="filter_8" x="-8" y="12.583292838945667" width="43.88100091250615" height="35.586720670884624" filterUnits="userSpaceOnUse" color-interpolation-filters="sRGB"><feFlood flood-opacity="0" result="BackgroundImageFix"/>
          <feColorMatrix in="SourceAlpha" type="matrix" values="0 0 0 0 0 0 0 0 0 0 0 0 0 0 0 0 0 0 127 0"/>
          <feOffset dx="2" dy="2"/>
          <feGaussianBlur stdDeviation="4"/>
          <feColorMatrix type="matrix" values="0 0 0 0 1 0 0 0 0 0.7490196078431373 0 0 0 0 0.7019607843137254 0 0 0 0.6 0"/>
          <feBlend mode="normal" in2="BackgroundImageFix" result="effect1_Shadow"/>
          <feBlend mode="normal" in="SourceGraphic" in2="effect1_Shadow" result="shape"/></filter><linearGradient id="linear_2" x1="33.300000000000004%" y1="2.416%" x2="72.113%" y2="69.60499999999999%" gradientUnits="objectBoundingBox"><stop offset="0" stop-color="#FFCEBF" stop-opacity="1" /><stop offset="1" stop-color="#FFF0ED" stop-opacity="1" /></linearGradient><filter id="filter_10" x="-8" y="-8" width="61.506796392638456" height="81.56467006395819" filterUnits="userSpaceOnUse" color-interpolation-filters="sRGB"><feFlood flood-opacity="0" result="BackgroundImageFix"/>
          <feColorMatrix in="SourceAlpha" type="matrix" values="0 0 0 0 0 0 0 0 0 0 0 0 0 0 0 0 0 0 127 0"/>
          <feOffset dx="2" dy="2"/>
          <feGaussianBlur stdDeviation="4"/>
          <feColorMatrix type="matrix" values="0 0 0 0 1 0 0 0 0 0.7490196078431373 0 0 0 0 0.7019607843137254 0 0 0 0.6 0"/>
          <feBlend mode="normal" in2="BackgroundImageFix" result="effect1_Shadow"/>
          <feBlend mode="normal" in="SourceGraphic" in2="effect1_Shadow" result="shape"/></filter><filter id="filter_11" x="-5" y="-5" width="55.506796392638456" height="75.56467006395819" filterUnits="userSpaceOnUse" color-interpolation-filters="sRGB"><feFlood flood-opacity="0" result="BackgroundImageFix"/>
          <feGaussianBlur in="BackgroundImage" stdDeviation="2.5"/>
          <feComposite in2="SourceAlpha" operator="in" result="effect1_backgroundBlur"/>
          <feBlend mode="normal" in="SourceGraphic" in2="effect1_backgroundBlur" result="shape"/></filter></defs><g opacity="1" transform="translate(0 0)  rotate(0 45 45)"><mask id="bg-mask-0" fill="white"><use xlink:href="#path_0"></use></mask><g mask="url(#bg-mask-0)" ><g opacity="1" transform="translate(15 12.217664968020927)  rotate(0 30 32.782335031979095)"><mask id="bg-mask-1" fill="white"><use xlink:href="#path_1"></use></mask><g mask="url(#bg-mask-1)" ><g opacity="1" transform="translate(32.11899908749385 12.48388300961104)  rotate(0 13.940500456253075 20.08500675491515)"><g id="路径 1" filter="url(#filter_6)"><path id="路径 1" fill-rule="evenodd" fill="url(#linear_0)" transform="translate(4.256129789175553 0)  rotate(0 9.684503987770075 9.684570648116356)" opacity="1" d="M9.68,0C4.34,0 0,4.34 0,9.68C0,15.03 4.34,19.37 9.68,19.37C15.03,19.37 19.37,15.03 19.37,9.68C19.37,4.34 15.03,0 9.68,0Z " /></g><g id="路径 2" filter="url(#filter_8)"><path id="路径 2" fill-rule="evenodd" fill="url(#linear_1)" transform="translate(0 20.583292838945667)  rotate(0 13.940500456253075 9.793360335442312)" opacity="1" d="M27.88,12.03C27.88,5.39 21.64,0 13.94,0C6.24,0 0,5.39 0,12.03C0,18.68 6.24,19.59 13.94,19.59C21.64,19.59 27.88,18.67 27.88,12.03L27.88,12.03Z " /></g></g><g id="并集" filter="url(#filter_11)"><g id="并集" filter="url(#filter_10)"><path id="并集" fill-rule="evenodd" style="fill:#FFD3C9" transform="translate(0 0)  rotate(0 22.753398196319228 32.782335031979095)" opacity="0.4" d="M6.94677 15.81C6.94677 7.08 14.0268 0 22.7568 0C31.4868 0 38.5568 7.08 38.5568 15.81C38.5568 24.54 31.4868 31.61 22.7568 31.61C14.0268 31.61 6.94677 24.54 6.94677 15.81Z M22.75 33.5956C35.32 33.5956 45.51 42.3856 45.51 53.2356C45.51 64.0756 35.32 65.5656 22.75 65.5656C10.19 65.5656 0 64.0756 0 53.2356C0 42.3856 10.19 33.5956 22.75 33.5956Z null null " /><path id="并集" style="stroke:url(#linear_2); stroke-width:1; stroke-opacity:100; stroke-dasharray:0 0" transform="translate(0 0)  rotate(0 22.753398196319228 32.782335031979095)" d="M6.94677 15.81C6.94677 7.08 14.0268 0 22.7568 0C31.4868 0 38.5568 7.08 38.5568 15.81C38.5568 24.54 31.4868 31.61 22.7568 31.61C14.0268 31.61 6.94677 24.54 6.94677 15.81Z M22.75 33.5956C35.32 33.5956 45.51 42.3856 45.51 53.2356C45.51 64.0756 35.32 65.5656 22.75 65.5656C10.19 65.5656 0 64.0756 0 53.2356C0 42.3856 10.19 33.5956 22.75 33.5956Z null null " /></g></g></g></g></g></g></svg>