<svg xmlns="http://www.w3.org/2000/svg" xmlns:xlink="http://www.w3.org/1999/xlink" width="66" height="56" viewBox="0 0 66 56" fill="none"><defs><linearGradient id="linear_0" x1="50%" y1="100%" x2="51%" y2="0%" gradientUnits="objectBoundingBox"><stop offset="0" stop-color="#43E97B" stop-opacity="1" /><stop offset="1" stop-color="#38F9D7" stop-opacity="1" /></linearGradient><filter id="filter_2" x="19" y="3" width="55" height="56" filterUnits="userSpaceOnUse" color-interpolation-filters="sRGB"><feFlood flood-opacity="0" result="BackgroundImageFix"/>
          <feColorMatrix in="SourceAlpha" type="matrix" values="0 0 0 0 0 0 0 0 0 0 0 0 0 0 0 0 0 0 127 0"/>
          <feOffset dx="2" dy="2"/>
          <feGaussianBlur stdDeviation="4"/>
          <feColorMatrix type="matrix" values="0 0 0 0 0.2235294117647059 0 0 0 0 0.9725490196078431 0 0 0 0 0.8196078431372549 0 0 0 0.38 0"/>
          <feBlend mode="normal" in2="BackgroundImageFix" result="effect1_Shadow"/>
          <feBlend mode="normal" in="SourceGraphic" in2="effect1_Shadow" result="shape"/></filter><linearGradient id="linear_1" x1="91.171%" y1="100%" x2="29.032999999999998%" y2="4.857%" gradientUnits="objectBoundingBox"><stop offset="0" stop-color="#B8FFF8" stop-opacity="1" /><stop offset="1" stop-color="#68FCEE" stop-opacity="1" /></linearGradient><filter id="filter_4" x="-8" y="-8" width="71" height="72" filterUnits="userSpaceOnUse" color-interpolation-filters="sRGB"><feFlood flood-opacity="0" result="BackgroundImageFix"/>
          <feColorMatrix in="SourceAlpha" type="matrix" values="0 0 0 0 0 0 0 0 0 0 0 0 0 0 0 0 0 0 127 0"/>
          <feOffset dx="2" dy="2"/>
          <feGaussianBlur stdDeviation="4"/>
          <feColorMatrix type="matrix" values="0 0 0 0 0.2235294117647059 0 0 0 0 0.9725490196078431 0 0 0 0 0.8196078431372549 0 0 0 0.38 0"/>
          <feBlend mode="normal" in2="BackgroundImageFix" result="effect1_Shadow"/>
          <feBlend mode="normal" in="SourceGraphic" in2="effect1_Shadow" result="shape"/></filter><filter id="filter_5" x="-5" y="-5" width="65" height="66" filterUnits="userSpaceOnUse" color-interpolation-filters="sRGB"><feFlood flood-opacity="0" result="BackgroundImageFix"/>
          <feGaussianBlur in="BackgroundImage" stdDeviation="2.5"/>
          <feComposite in2="SourceAlpha" operator="in" result="effect1_backgroundBlur"/>
          <feBlend mode="normal" in="SourceGraphic" in2="effect1_backgroundBlur" result="shape"/></filter></defs><g opacity="1" transform="translate(0 0)  rotate(0 33 28)"><g id="路径 5" filter="url(#filter_2)"><path id="路径 5" fill-rule="evenodd" fill="url(#linear_0)" transform="translate(27 11)  rotate(0 19.5 20)" opacity="1" d="M2.6,40L36.32,40C39.91,39.82 38.86,35.71 38.86,35.71C38.86,27.05 24.67,10.94 24.67,10.94L24.67,5.78L25.19,5.78C26.77,5.78 28.08,4.46 28.08,2.89C28.08,1.31 26.77,0 25.19,0L13.81,0C12.23,0 10.92,1.31 10.92,2.89C10.92,4.46 12.23,5.78 13.81,5.78L14.34,5.78L14.34,10.94C14.34,10.94 0.15,27.05 0.15,35.71C0.15,35.71 -0.9,39.74 2.6,40Z " /></g><g id="路径 5" filter="url(#filter_5)"><g id="路径 5" filter="url(#filter_4)"><path id="路径 5" fill-rule="evenodd" style="fill:#39F8D0" transform="translate(0 0)  rotate(0 27.5 28)" opacity="0.4" d="M3.67,56L51.22,56C56.28,55.75 54.8,50 54.8,50C54.8,37.86 34.79,15.32 34.79,15.32L34.79,8.09L35.53,8.09C37.75,8.09 39.61,6.25 39.61,4.04C39.61,1.84 37.75,0 35.53,0L19.48,0C17.25,0 15.4,1.84 15.4,4.04C15.4,6.25 17.25,8.09 19.48,8.09L20.22,8.09L20.22,15.32C20.22,15.32 0.21,37.86 0.21,50C0.21,50 -1.27,55.63 3.67,56Z " /><path id="路径 5" style="stroke:url(#linear_1); stroke-width:1; stroke-opacity:100; stroke-dasharray:0 0" transform="translate(0 0)  rotate(0 27.5 28)" d="M3.67,56L51.22,56C56.28,55.75 54.8,50 54.8,50C54.8,37.86 34.79,15.32 34.79,15.32L34.79,8.09L35.53,8.09C37.75,8.09 39.61,6.25 39.61,4.04C39.61,1.84 37.75,0 35.53,0L19.48,0C17.25,0 15.4,1.84 15.4,4.04C15.4,6.25 17.25,8.09 19.48,8.09L20.22,8.09L20.22,15.32C20.22,15.32 0.21,37.86 0.21,50C0.21,50 -1.27,55.63 3.67,56Z " /></g></g></g></svg>