<svg xmlns="http://www.w3.org/2000/svg" xmlns:xlink="http://www.w3.org/1999/xlink" width="64" height="56" viewBox="0 0 64 56" fill="none"><defs><rect id="path_0" x="0" y="0" width="33.99999999999999" height="40" /><linearGradient id="linear_0" x1="50%" y1="0%" x2="51%" y2="100%" gradientUnits="objectBoundingBox"><stop offset="0" stop-color="#F6D365" stop-opacity="1" /><stop offset="1" stop-color="#FDA085" stop-opacity="1" /></linearGradient><filter id="filter_4" x="-8" y="-8" width="49.99999999999999" height="56" filterUnits="userSpaceOnUse" color-interpolation-filters="sRGB"><feFlood flood-opacity="0" result="BackgroundImageFix"/>
          <feColorMatrix in="SourceAlpha" type="matrix" values="0 0 0 0 0 0 0 0 0 0 0 0 0 0 0 0 0 0 127 0"/>
          <feOffset dx="2" dy="2"/>
          <feGaussianBlur stdDeviation="4"/>
          <feColorMatrix type="matrix" values="0 0 0 0 0.9686274509803922 0 0 0 0 0.792156862745098 0 0 0 0 0.4196078431372549 0 0 0 0.5 0"/>
          <feBlend mode="normal" in2="BackgroundImageFix" result="effect1_Shadow"/>
          <feBlend mode="normal" in="SourceGraphic" in2="effect1_Shadow" result="shape"/></filter><linearGradient id="linear_1" x1="14.427000000000001%" y1="17.399%" x2="93.44200000000001%" y2="94.686%" gradientUnits="objectBoundingBox"><stop offset="0" stop-color="#FCDF9A" stop-opacity="1" /><stop offset="1" stop-color="#FFF7E3" stop-opacity="1" /></linearGradient><filter id="filter_6" x="-8" y="-8" width="64" height="72" filterUnits="userSpaceOnUse" color-interpolation-filters="sRGB"><feFlood flood-opacity="0" result="BackgroundImageFix"/>
          <feColorMatrix in="SourceAlpha" type="matrix" values="0 0 0 0 0 0 0 0 0 0 0 0 0 0 0 0 0 0 127 0"/>
          <feOffset dx="2" dy="2"/>
          <feGaussianBlur stdDeviation="4"/>
          <feColorMatrix type="matrix" values="0 0 0 0 0.9686274509803922 0 0 0 0 0.792156862745098 0 0 0 0 0.4196078431372549 0 0 0 0.5 0"/>
          <feBlend mode="normal" in2="BackgroundImageFix" result="effect1_Shadow"/>
          <feBlend mode="normal" in="SourceGraphic" in2="effect1_Shadow" result="shape"/></filter><filter id="filter_7" x="-5" y="-5" width="58" height="66" filterUnits="userSpaceOnUse" color-interpolation-filters="sRGB"><feFlood flood-opacity="0" result="BackgroundImageFix"/>
          <feGaussianBlur in="BackgroundImage" stdDeviation="2.5"/>
          <feComposite in2="SourceAlpha" operator="in" result="effect1_backgroundBlur"/>
          <feBlend mode="normal" in="SourceGraphic" in2="effect1_backgroundBlur" result="shape"/></filter></defs><g opacity="1" transform="translate(0 0)  rotate(0 31.999999999999996 28)"><g opacity="1" transform="translate(30 11)  rotate(0 16.999999999999996 20)"><mask id="bg-mask-0" fill="white"><use xlink:href="#path_0"></use></mask><g mask="url(#bg-mask-0)" ><g id="分组 1" filter="url(#filter_4)"><path id="分组 1" fill-rule="evenodd" fill="url(#linear_0)" transform="translate(0 0)  rotate(0 16.999999999999996 20)" opacity="1" d="M5.22 39.28C6.49 39.68 8.62 40 9.96 40L24.04 40C25.38 40 27.51 39.68 28.78 39.28L31.69 38.37C32.96 37.97 34 36.59 34 35.29L34 16.94C34 15.64 32.43 14.12 31.09 14.12L26.71 14.12L26.71 10.82C26.71 4.01 23.47 0 17 0C10.53 0 7.29 4.01 7.29 10.82L7.29 14.12L2.43 14.12C1.09 14.12 0 15.64 0 16.94L0 35.29C0 36.59 1.04 37.97 2.31 38.37L5.22 39.28Z M12.1431 14.1156L21.8531 14.1156L21.8531 9.88559C21.8531 6.48559 19.9231 4.70559 17.0031 4.70559C14.0831 4.70559 12.1431 6.48559 12.1431 9.88559L12.1431 14.1156Z " /></g></g></g><g id="分组 1" filter="url(#filter_7)"><g id="分组 1" filter="url(#filter_6)"><path id="分组 1" fill-rule="evenodd" style="fill:#F7CD69" transform="translate(0 0)  rotate(0 24 28)" opacity="0.4" d="M14.06 56C12.17 56 9.16 55.55 7.37 54.99L3.26 53.72C1.47 53.16 0 51.22 0 49.41L0 23.72C0 21.9 1.53 19.76 3.43 19.76L10.29 19.76L10.29 15.15C10.29 5.61 14.86 0 24 0C33.14 0 37.72 5.61 37.72 15.15L37.72 19.76L43.89 19.76C45.78 19.76 48 21.9 48 23.72L48 49.41C48 51.22 46.53 53.16 44.74 53.72L40.64 54.99C38.84 55.55 35.83 56 33.94 56L14.06 56Z M30.8532 19.7678L17.1432 19.7678L17.1432 13.8378C17.1432 9.07782 19.8732 6.58782 24.0032 6.58782C28.1232 6.58782 30.8532 9.07782 30.8532 13.8378L30.8532 19.7678Z null " /><path id="分组 1" style="stroke:url(#linear_1); stroke-width:1; stroke-opacity:100; stroke-dasharray:0 0" transform="translate(0 0)  rotate(0 24 28)" d="M14.06 56C12.17 56 9.16 55.55 7.37 54.99L3.26 53.72C1.47 53.16 0 51.22 0 49.41L0 23.72C0 21.9 1.53 19.76 3.43 19.76L10.29 19.76L10.29 15.15C10.29 5.61 14.86 0 24 0C33.14 0 37.72 5.61 37.72 15.15L37.72 19.76L43.89 19.76C45.78 19.76 48 21.9 48 23.72L48 49.41C48 51.22 46.53 53.16 44.74 53.72L40.64 54.99C38.84 55.55 35.83 56 33.94 56L14.06 56Z M30.8532 19.7678L17.1432 19.7678L17.1432 13.8378C17.1432 9.07782 19.8732 6.58782 24.0032 6.58782C28.1232 6.58782 30.8532 9.07782 30.8532 13.8378L30.8532 19.7678Z null " /></g></g></g></svg>