<svg xmlns="http://www.w3.org/2000/svg" xmlns:xlink="http://www.w3.org/1999/xlink" width="69.99999999999977" height="48.183819423993555" viewBox="0 0 69.99999999999977 48.183819423993555" fill="none"><defs><rect id="path_0" x="0" y="0" width="39.44104440123713" height="33.55822722269488" /><linearGradient id="linear_0" x1="50%" y1="100%" x2="50%" y2="0%" gradientUnits="objectBoundingBox"><stop offset="0" stop-color="#FF0844" stop-opacity="1" /><stop offset="1" stop-color="#FFB199" stop-opacity="1" /></linearGradient><filter id="filter_4" x="-8" y="-8" width="55.44104440123713" height="49.55822722269488" filterUnits="userSpaceOnUse" color-interpolation-filters="sRGB"><feFlood flood-opacity="0" result="BackgroundImageFix"/>
          <feColorMatrix in="SourceAlpha" type="matrix" values="0 0 0 0 0 0 0 0 0 0 0 0 0 0 0 0 0 0 127 0"/>
          <feOffset dx="2" dy="2"/>
          <feGaussianBlur stdDeviation="4"/>
          <feColorMatrix type="matrix" values="0 0 0 0 1 0 0 0 0 0.5686274509803921 0 0 0 0 0.5686274509803921 0 0 0 0.6 0"/>
          <feBlend mode="normal" in2="BackgroundImageFix" result="effect1_Shadow"/>
          <feBlend mode="normal" in="SourceGraphic" in2="effect1_Shadow" result="shape"/></filter><linearGradient id="linear_1" x1="24.764%" y1="0%" x2="69.179%" y2="86.87%" gradientUnits="objectBoundingBox"><stop offset="0" stop-color="#FFCCC4" stop-opacity="1" /><stop offset="1" stop-color="#FFE0DB" stop-opacity="1" /></linearGradient><filter id="filter_6" x="-8" y="-8" width="73.6110884417314" height="64.18381942399353" filterUnits="userSpaceOnUse" color-interpolation-filters="sRGB"><feFlood flood-opacity="0" result="BackgroundImageFix"/>
          <feColorMatrix in="SourceAlpha" type="matrix" values="0 0 0 0 0 0 0 0 0 0 0 0 0 0 0 0 0 0 127 0"/>
          <feOffset dx="2" dy="2"/>
          <feGaussianBlur stdDeviation="4"/>
          <feColorMatrix type="matrix" values="0 0 0 0 1 0 0 0 0 0.5686274509803921 0 0 0 0 0.5686274509803921 0 0 0 0.6 0"/>
          <feBlend mode="normal" in2="BackgroundImageFix" result="effect1_Shadow"/>
          <feBlend mode="normal" in="SourceGraphic" in2="effect1_Shadow" result="shape"/></filter><filter id="filter_7" x="-5" y="-5" width="67.6110884417314" height="58.183819423993526" filterUnits="userSpaceOnUse" color-interpolation-filters="sRGB"><feFlood flood-opacity="0" result="BackgroundImageFix"/>
          <feGaussianBlur in="BackgroundImage" stdDeviation="2.5"/>
          <feComposite in2="SourceAlpha" operator="in" result="effect1_backgroundBlur"/>
          <feBlend mode="normal" in="SourceGraphic" in2="effect1_backgroundBlur" result="shape"/></filter></defs><g opacity="1" transform="translate(0 0)  rotate(0 34.999999999999886 24.091909711996763)"><g opacity="1" transform="translate(30.558955598762644 8.7259283825458)  rotate(0 19.720522200618564 16.77911361134744)"><mask id="bg-mask-0" fill="white"><use xlink:href="#path_0"></use></mask><g mask="url(#bg-mask-0)" ><g id="路径 1" filter="url(#filter_4)"><path id="路径 1" fill-rule="evenodd" fill="url(#linear_0)" transform="translate(0 0)  rotate(0 19.720522200618564 16.77911361134744)" opacity="1" d="M20.06,3.06L19.7,3.44L19.16,2.91L19.13,2.91C16.93,0.95 14.49,0 11.68,0C8.57,0 5.64,1.16 3.44,3.28C1.22,5.41 0,8.24 0,11.26C0,14.28 1.22,17.11 3.43,19.24L17.16,32.53C17.85,33.19 18.76,33.56 19.72,33.56C20.68,33.56 21.59,33.19 22.28,32.53L36,19.24C38.22,17.12 39.44,14.28 39.44,11.26C39.44,8.19 38.25,5.43 36,3.28C33.8,1.16 30.87,0 27.76,0C24.79,0 22.26,1 20.06,3.06Z " /></g></g></g><g id="路径 1" filter="url(#filter_7)"><g id="路径 1" filter="url(#filter_6)"><path id="路径 1" fill-rule="evenodd" style="fill:#FFA394" transform="translate(0 0)  rotate(0 28.805544220865695 24.091909711996763)" opacity="0.4" d="M29.3,4.39L28.77,4.94L27.99,4.18L27.94,4.18C24.74,1.37 21.17,0 17.06,0C12.52,0 8.24,1.67 5.02,4.71C1.78,7.77 0,11.84 0,16.17C0,20.5 1.78,24.57 5.01,27.62L25.07,46.71C26.07,47.66 27.4,48.18 28.8,48.18C30.21,48.18 31.54,47.66 32.55,46.71L52.59,27.63C55.83,24.58 57.61,20.51 57.61,16.17C57.61,11.76 55.87,7.8 52.59,4.71C49.37,1.67 45.1,0 40.55,0C36.21,0 32.52,1.44 29.3,4.39Z " /><path id="路径 1" style="stroke:url(#linear_1); stroke-width:1; stroke-opacity:100; stroke-dasharray:0 0" transform="translate(0 0)  rotate(0 28.805544220865695 24.091909711996763)" d="M29.3,4.39L28.77,4.94L27.99,4.18L27.94,4.18C24.74,1.37 21.17,0 17.06,0C12.52,0 8.24,1.67 5.02,4.71C1.78,7.77 0,11.84 0,16.17C0,20.5 1.78,24.57 5.01,27.62L25.07,46.71C26.07,47.66 27.4,48.18 28.8,48.18C30.21,48.18 31.54,47.66 32.55,46.71L52.59,27.63C55.83,24.58 57.61,20.51 57.61,16.17C57.61,11.76 55.87,7.8 52.59,4.71C49.37,1.67 45.1,0 40.55,0C36.21,0 32.52,1.44 29.3,4.39Z " /></g></g></g></svg>